# xmcd
#
# Track frame offsets: 
#        150
#        17034
#        32812
#        49328
#        64109
#        79074
#        95052
#        112133
#        128947
#        149971
#        167116
#        186047
#
# Disc length: 2730 seconds
#
# Revision: 0
# Processed by: cddbd v1.5.2PL0 Copyright (c) Steve Scherf et al.
# Submitted via: ExactAudioCopyFreeDBPlugin 1.0
#
DISCID=b50aa80c
DTITLE=Melanie Fiona - The Bridge
DYEAR=2009
DGENRE=R&B
TTITLE0=Give It To Me Right
TTITLE1=Bang Bang
TTITLE2=Monday Morning
TTITLE3=Please Don't Go (Cry Baby)
TTITLE4=Ay Yo
TTITLE5=Walk On By
TTITLE6=You Stop My Heart
TTITLE7=Johnny
TTITLE8=Sad Songs
TTITLE9=Priceless
TTITLE10=It Kills Me
TTITLE11=Teach Him
EXTD=
EXTT0=
EXTT1=
EXTT2=
EXTT3=
EXTT4=
EXTT5=
EXTT6=
EXTT7=
EXTT8=
EXTT9=
EXTT10=
EXTT11=
PLAYORDER=
